PathFileType	4	(X/Y/Z)	C:/Users/beibeiliu/ov580/test_trc/capture2\sequence.8_training_dense_left.trc
DataRate	CameraRate	NumFrames	NumMarkers	Units	OrigDataRate	OrigDataStartFrame	OrigNumFrames
120	120	7	19	mm	120	301	400
Frame#	Time	ThumbCMC			ThumbMCP			ThumbIP			ThumbTip			IndexMCP			IndexPIP			IndexTip			MiddleMCP			MiddlePIP			MiddleTip			RingMCP			RingPIP			RingTip			PinkyMCP			PinkyPIP			PinkyTip			BackHand1			BackHand2			BackHand3	
		X0	Y0	Z0	X1	Y1	Z1	X2	Y2	Z2	X3	Y3	Z3	X4	Y4	Z4	X5	Y5	Z5	X6	Y6	Z6	X7	Y7	Z7	X8	Y8	Z8	X9	Y9	Z9	X10	Y10	Z10	X11	Y11	Z11	X12	Y12	Z12	X13	Y13	Z13	X14	Y14	Z14	X15	Y15	Z15	X16	Y16	Z16	X17	Y17	Z17	X18	Y18	Z18	
300	2.5	-121.074	64.0961	-29.065	-97.2727	61.7397	-46.5791	-79.2579	65.8172	-61.5401	-58.58	74.1424	-69.5727	-114.013	55.0239	-108.701	-99.9212	54.0392	-125.662	-98.7747	51.8305	-150.462	-136.989	42.9722	-118.128	-130.084	38.7192	-139.935	-125.228	36.3957	-165.331	-153.566	27.9502	-115.485	-149.386	20.1648	-133.054	-148.58	13.5396	-162.56	-171.226	7.06841	-102.784	-171.23	-5.17179	-114.052	-177.356	-14.356	-132.549	-168.29	48.0819	-67.9356	-176.653	58.018	-45.5484	-150.273	67.0495	-54.3596	
301	2.50833	-124.455	66.8727	-34.2598	-99.7685	68.4369	-48.4886	-80.5711	74.7705	-60.8645	-66.2491	81.5236	-70.4728	-117.589	57.4646	-106.495	-104.416	56.4652	-126.407	-97.4867	57.3358	-150.379	-138.707	43.671	-115.225	-131.71	37.0803	-143.811	-130.727	33.8422	-167.019	-151.243	28.0396	-112.302	-151.697	17.09	-134.847	-144.912	13.5032	-162.351	-169.902	5.11301	-100.905	-167.618	-8.90069	-114.157	-172.877	-18.158	-132.677	-173.078	44.101	-68.493	-181.89	54.2624	-44.9887	-152.119	70.6917	-55.4081	
302	2.51667	-126.52	72.8167	-34.5879	-102.767	75.544	-49.5198	-87.8721	81.7246	-62.6721	-69.3691	93.2978	-75.7671	-117.965	63.7482	-106.838	-107.827	61.258	-127.059	-101.241	61.7473	-154.335	-140.017	42.8863	-119.351	-132.629	38.3216	-143.682	-129.462	36.6788	-166.53	-151.696	25.5219	-116.476	-151.074	14.3586	-133.875	-145.478	9.70261	-162.208	-165.357	3.20904	-100.525	-162.213	-10.6646	-114.904	-168.341	-24.5632	-131.88	-173.924	43.1646	-68.8193	-184.671	48.4775	-44.3521	-155.741	70.2082	-53.196	
303	2.525	-131.751	73.6741	-35.0521	-108.511	80.8308	-50.3054	-93.8834	87.1074	-66.0014	-78.1326	100.182	-75.2117	-124.511	62.5754	-109.554	-112.306	61.4105	-132.504	-107.279	63.3653	-153.414	-141.176	44.2093	-122.433	-135.391	36.9807	-144.493	-129.627	36.6682	-170.581	-153.396	22.2053	-112.507	-146.066	16.3264	-133.569	-143.223	7.80211	-159.333	-162.009	3.37428	-99.4647	-160.008	-16.4892	-114.615	-162.344	-27.6936	-128.97	-173.644	40.2243	-72.4513	-186.691	46.0541	-47.5421	-160.713	68.5359	-55.1446	
304	2.53333	-135.76	76.2328	-38.3555	-112.981	86.2626	-51.3656	-100.548	93.8861	-71.5183	-87.3815	107.266	-83.7208	-125.958	65.261	-111.09	-115.091	65.0369	-134.384	-112.247	64.8716	-157.099	-143.184	42.0933	-119.932	-137.096	37.3794	-140.531	-133.421	33.97	-170.582	-149.902	22.6305	-116.567	-143.559	15.6703	-137.424	-141.27	6.89547	-156.402	-158.53	-0.648462	-99.9909	-152.445	-14.931	-113.666	-156.192	-29.7305	-130.106	-174.775	41.6034	-69.5015	-182.574	46.564	-45.9891	-161.422	71.1652	-57.8	
305	2.54167	-139.792	80.2248	-41.5401	-120.435	86.615	-54.1628	-106.977	102.986	-73.9784	-95.8056	116.769	-84.8942	-126.573	70.7286	-114.715	-120.191	68.3097	-134.362	-115.581	68.6224	-161.543	-144.137	43.3129	-118.461	-135.776	39.9805	-141.603	-131.004	37.0338	-171.412	-149.611	21.309	-114.463	-145.048	11.4665	-132.82	-137.497	7.25147	-157.749	-156.548	-0.919388	-95.5187	-148.844	-15.689	-111.488	-148.042	-31.6856	-130.336	-173.477	37.5605	-70.401	-186.265	41.8893	-49.3278	-166.391	68.9918	-57.7444	
306	2.55	-144.278	82.6664	-39.9603	-125.245	91.2527	-58.5064	-114.557	107.913	-80.0443	-106.991	123.152	-86.3478	-131.888	68.7304	-115.829	-122.669	68.5848	-139.215	-119.77	68.3125	-161.492	-143.5	43.9368	-120.947	-135.401	38.6253	-143.189	-130.445	35.259	-172.993	-147.245	19.9523	-116.151	-139.027	12.8144	-137.789	-135.644	4.32344	-156.761	-150.607	1.94882	-97.4565	-140.997	-15.2548	-111.606	-140.328	-32.4993	-125.852	-172.362	37.3773	-73.0245	-185.208	41.1287	-48.4767	-169.77	66.181	-60.8509	
